<?xml version="1.0" encoding="UTF-8"?>
<svg version="1.1" xmlns="http://www.w3.org/2000/svg" width="2388" height="2411">
<path d="M0 0 C0 98.01 0 196.02 0 297 C-60.39 297.33 -120.78 297.66 -183 298 C-171.45 299.98 -159.9 301.96 -148 304 C-78.44143801 319.48993187 -13.53584281 348.25309482 40 396 C40.52625977 396.46841309 41.05251953 396.93682617 41.59472656 397.41943359 C54.151965 408.65999831 66.71377519 420.33394853 77.1171875 433.625 C78.88605427 435.85626762 80.74538636 437.91974439 82.6875 440 C113.50572777 474.37182064 165 548.02754762 165 596 C165.76694278 595.99723462 166.53388556 595.99446924 167.32406902 595.99162006 C186.12761177 595.9248912 204.93113039 595.87549416 223.73476696 595.84456348 C232.82867415 595.82920182 241.92250153 595.80832163 251.01635742 595.77368164 C258.95769177 595.74344664 266.89896823 595.72434768 274.84035856 595.71773452 C279.03153087 595.71387889 283.22253783 595.70505217 287.41365623 595.68280983 C363.38717236 595.29593135 441.99557183 615.21911355 498.69921875 668.83984375 C500.66504138 670.68551424 502.66873396 672.4476486 504.7109375 674.20703125 C516.0771843 684.117997 526.86167649 694.99475146 536 707 C537.01049838 708.28351381 538.02232559 709.56598206 539.03515625 710.84765625 C569.04515276 749.09307809 588.60907594 793.37518321 598 841 C598.16580566 841.82935059 598.33161133 842.65870117 598.50244141 843.51318359 C603.21837918 867.81216694 603.30469733 892.79802719 603.23213124 917.45816422 C603.22330255 921.24230094 603.22643026 925.02643323 603.22793579 928.81057739 C603.22897268 935.33079448 603.22282341 941.85097083 603.21146011 948.37117767 C603.19504263 957.79770977 603.18998072 967.22422264 603.18748413 976.65076748 C603.18313215 991.95338733 603.16989174 1007.25598559 603.15087891 1022.55859375 C603.13245483 1037.40299371 603.1183305 1052.24738775 603.10986328 1067.09179688 C603.10933783 1068.01040925 603.10881239 1068.92902162 603.10827102 1069.87547073 C603.1056605 1074.48495502 603.10313319 1079.09443935 603.10064721 1083.7039237 C603.07999269 1121.80263091 603.0448363 1159.90131401 603 1198 C564.68950532 1198.045947 526.37901484 1198.08110473 488.0684981 1198.10213066 C483.52824999 1198.10463157 478.98800194 1198.10722026 474.44775391 1198.10986328 C473.54401033 1198.1103879 472.64026676 1198.11091252 471.70913702 1198.11145304 C457.14549618 1198.12011571 442.5818714 1198.13586243 428.01824003 1198.15430559 C413.03412208 1198.1731206 398.05001244 1198.18414101 383.06588316 1198.18817699 C373.84697479 1198.19089822 364.62811184 1198.19943839 355.40921748 1198.21583293 C349.05622605 1198.22654368 342.70325752 1198.22956944 336.35025775 1198.22700275 C332.70483281 1198.22574292 329.05948623 1198.22743487 325.41407585 1198.23841095 C310.5230408 1198.28088851 295.6969562 1198.01696562 280.83557129 1197.09518433 C279.54006898 1197.01549852 278.24456668 1196.93581272 276.90980673 1196.8537122 C235.43912603 1194.05426541 195.62183504 1181.38968571 159 1162 C158.36320312 1161.66564941 157.72640625 1161.33129883 157.0703125 1160.98681641 C136.88406071 1150.30087137 118.17804185 1136.79778776 101.44921875 1121.265625 C99.31612133 1119.29242483 97.14641013 1117.38705297 94.9375 1115.5 C87.37888712 1108.91719165 80.41832197 1101.692093 74 1094 C73.54254395 1093.45633789 73.08508789 1092.91267578 72.61376953 1092.35253906 C64.45669832 1082.62788932 56.94118868 1072.62710152 50 1062 C49.32710937 1060.97003906 48.65421875 1059.94007812 47.9609375 1058.87890625 C45.90418637 1055.62449962 43.92952676 1052.33070101 42 1049 C41.55543457 1048.23510254 41.11086914 1047.47020508 40.65283203 1046.68212891 C34.52398322 1036.04008839 28.98982057 1025.24543999 24.1875 1013.9375 C23.74873535 1012.92067139 23.3099707 1011.90384277 22.85791016 1010.85620117 C22.26888916 1009.42497925 22.26888916 1009.42497925 21.66796875 1007.96484375 C21.32016357 1007.1255835 20.9723584 1006.28632324 20.61401367 1005.42163086 C19.49059084 1000.99092267 21.14902033 997.32333166 22.8203125 993.21875 C23.18705078 992.30649658 23.55378906 991.39424316 23.93164062 990.4543457 C24.52235352 988.99194458 24.52235352 988.99194458 25.125 987.5 C54.83017522 912.28965045 64.13870588 827.33794008 18.48876953 507.40429688 C2.36662369 470.53857015 -18.51756025 436.32340429 -45 406 C-45.68964844 405.19820312 -46.37929687 404.39640625 -47.08984375 403.5703125 C-57.74497981 391.42223031 -69.23484626 379.91450845 -82 370 C-83.13803073 369.06436844 -84.2732706 368.12533577 -85.40625 367.18359375 C-94.48806867 359.67958971 -103.97503857 353.17506253 -114 347 C-114.66161133 346.58540527 -115.32322266 346.17081055 -116.00488281 345.74365234 C-164.53968938 315.41841287 -225.54379128 297.80822274 -283 299 C-282.46560303 299.1043335 -281.93120605 299.20866699 -281.38061523 299.31616211 C-223.59824954 310.79244103 -172.09704773 333.14195 -129 374 C-127.86884766 375.06734375 -127.86884766 375.06734375 -126.71484375 376.15625 C-121.32676348 381.38365193 -116.65379994 387.1186535 -112 393 C-110.82630859 394.44826172 -110.82630859 394.44826172 -109.62890625 395.92578125 C-67.54022556 448.92384798 -49.43235612 516.26394249 -40.125 582.125 C-40.02136139 582.848013 -39.91772278 583.571026 -39.8109436 584.31594849 C-38.36854496 594.49963571 -37.59077073 604.62441408 -37.10687256 614.89520264 C-36.94705834 618.04265738 -36.72560709 621.18478169 -36.5 624.328125 C-36.37625 626.05482422 -36.37625 626.05482422 -36.25 627.81640625 C-36.08446497 630.08992643 -35.91781384 632.36336564 -35.75 634.63671875 C-35.47982816 638.423346 -35.23091502 642.21081221 -35 646 C-34.95442963 646.74061676 -34.90885925 647.48123352 -34.86190796 648.24429321 C-33.79946057 666.21541892 -33.79864033 684.19228568 -33.8125 702.1875 C-33.81276688 702.9641161 -33.81303375 703.74073219 -33.81330872 704.54088211 C-33.83248341 749.00636205 -33.83248341 749.00636205 -35.81640625 770.9576416 C-36.01435652 773.15970673 -36.20271905 775.36248573 -36.390625 777.56542969 C-43.49855319 859.75137325 -62.6753757 942.29956571 -181.11987305 1124.41894531 C-183.94733468 1127.73735382 -186.70640494 1131.10206664 -189.4375 1134.5 C-193.8145112 1139.88285937 -198.49554127 1144.94271342 -203.2265625 1150.01171875 C-205.36354314 1152.3035841 -207.45223348 1154.62758757 -209.5 1157 C-216.15439672 1164.68191386 -223.05792032 1172.18155966 -230.32237244 1179.28993225 C-231.98981751 1180.98962061 -233.52988908 1182.75096667 -235.07250977 1184.56420898 C-239.50202805 1189.65233501 -244.25354019 1194.39707512 -249.02734375 1199.16015625 C-249.98481025 1200.1182986 -250.94212845 1201.07658916 -251.89930725 1202.03501892 C-253.89373747 1204.03091287 -255.88993741 1206.02501452 -257.88745117 1208.01782227 C-260.42674399 1210.55141863 -262.96151903 1213.08947983 -265.49497128 1215.62891483 C-267.46732184 1217.60490703 -269.44208263 1219.57847679 -271.41754341 1221.55135918 C-272.80126628 1222.93410599 -274.18300314 1224.3188393 -275.56468201 1225.70362854 C-280.03092581 1230.15345859 -284.54800797 1234.47177719 -289.34474182 1238.56492615 C-291.68476651 1240.59367809 -293.84034758 1242.7819786 -296 1245 C-299.47472342 1248.56863486 -303.10337123 1251.85812853 -306.86328125 1255.1171875 C-310.49615995 1258.31837129 -313.99137033 1261.66392589 -317.5 1265 C-322.31255977 1269.5758765 -327.16945635 1274.06817881 -332.18701172 1278.41894531 C-334.60368985 1280.52646048 -336.95726063 1282.69924232 -339.3125 1284.875 C-342.91391171 1288.16432238 -346.57307275 1291.32017636 -350.375 1294.375 C-354.578144 1297.76385969 -358.56203177 1301.31239266 -362.5 1305 C-367.30546293 1309.49958994 -372.2516098 1313.73103247 -377.38671875 1317.85546875 C-379.99847623 1319.99874956 -382.50365302 1322.2238033 -385 1324.5 C-389.22013944 1328.34191939 -393.58027184 1331.96115221 -398.015625 1335.55078125 C-401.38761736 1338.31811006 -404.69656069 1341.1515737 -408 1344 C-413.92095076 1349.09986731 -419.92958548 1354.0785313 -426 1359 C-427.70916961 1360.3948092 -429.41748011 1361.7906717 -431.125 1363.1875 C-432.02863281 1363.92613281 -432.93226563 1364.66476562 -433.86328125 1365.42578125 C-436.24175388 1367.37421232 -438.61208449 1369.33228932 -440.98046875 1371.29296875 C-448.150138 1377.22403221 -455.3476983 1383.10059116 -462.69067383 1388.81591797 C-467.3606049 1392.46440546 -471.93605197 1396.22010567 -476.5 1400 C-483.34903278 1405.66925098 -490.28290296 1411.21194263 -497.29833984 1416.67333984 C-500.20581171 1418.94008333 -503.1022427 1421.22086052 -506 1423.5 C-507.16661586 1424.41673133 -508.33328248 1425.33339806 -509.5 1426.25 C-510.0775 1426.70375 -510.655 1427.1575 -511.25 1427.625 C-513 1429 -514.75 1430.375 -516.5 1431.75 C-517.07717773 1432.2035083 -517.65435547 1432.6570166 -518.24902344 1433.12426758 C-519.41890016 1434.04343313 -520.58882223 1434.96254095 -521.75878906 1435.8815918 C-524.62671157 1438.13456094 -527.4939099 1440.38843723 -530.359375 1442.64453125 C-544.76297482 1453.98145061 -559.24079019 1465.21905928 -573.81640625 1476.33398438 C-577.7344429 1479.32332719 -581.64816393 1482.31831429 -585.5625 1485.3125 C-587.00128442 1486.41278351 -588.44008479 1487.51304617 -589.87890625 1488.61328125 C-590.90886719 1489.40089844 -591.93882812 1490.18851563 -593 1491 C-584.05994463 1488.80540074 -575.51473442 1485.74070437 -566.9375 1482.4375 C-566.21834412 1482.16188232 -565.49918823 1481.88626465 -564.75823975 1481.60229492 C-535.33742103 1470.29540141 -506.44624243 1457.56132503 -478 1444 C-476.93056152 1443.49275391 -475.86112305 1442.98550781 -474.75927734 1442.46289062 C-454.44664611 1432.82424017 -434.30080158 1422.95161344 -414.61328125 1412.0859375 C-410.83373577 1410.0000781 -407.03997174 1407.9446871 -403.23046875 1405.9140625 C-388.9791207 1398.30593328 -375.05650832 1390.21600407 -361.20410156 1381.91064453 C-358.21661609 1380.12917079 -355.21778689 1378.36963639 -352.2109375 1376.62109375 C-340.68141708 1369.90846412 -329.45646835 1362.8305904 -318.3203125 1355.484375 C-313.92907887 1352.59209448 -309.48530811 1349.80549902 -305 1347.0625 C-295.2998096 1341.08915142 -286.03117339 1334.47371356 -276.72119141 1327.91601562 C-274.29035898 1326.2044444 -271.85525107 1324.49924126 -269.41796875 1322.796875 C-247.9370027 1307.76143829 -226.99126349 1292.01780654 -206.71289062 1275.39697266 C-204.42966821 1273.53485769 -202.12219282 1271.7041277 -199.8125 1269.875 C-194.35462574 1265.51963457 -189.03620937 1261.00260781 -183.72509766 1256.47070312 C-181.97952584 1254.9825451 -180.23016685 1253.49892806 -178.48046875 1252.015625 C-171.78924661 1246.32863948 -165.22559139 1240.53152278 -158.78125 1234.56640625 C-156.29177782 1232.2692388 -153.77820421 1230.00431542 -151.25 1227.75 C-139.32552045 1217.0067189 -127.79735777 1205.89831049 -116.4375 1194.5625 C-115.87297119 1194.00055939 -115.30844238 1193.43861877 -114.72680664 1192.85964966 C-109.15357877 1187.30659261 -103.63089989 1181.75153157 -98.51879883 1175.76391602 C-95.98183912 1172.81751931 -93.2923849 1170.0153199 -90.625 1167.1875 C-85.95316099 1162.19454716 -81.50199685 1157.09431243 -77.2265625 1151.75390625 C-75.23311529 1149.28832681 -73.19016142 1146.87449322 -71.12182617 1144.47167969 C-64.63302225 1136.9193078 -58.58442987 1129.06419751 -52.59667969 1121.11132812 C-51.10000514 1119.13223921 -49.58818367 1117.16597803 -48.0703125 1115.203125 C-31.74852487 1093.96930396 -17.62639711 1071.12015966 -4.43823242 1047.83862305 C-4.0022876 1047.07461182 -3.56634277 1046.31060059 -3.1171875 1045.5234375 C-2.73159668 1044.84200684 -2.34600586 1044.16057617 -1.94873047 1043.45849609 C-1.63564941 1042.97719238 -1.32256836 1042.49588867 -1 1042 C-0.67 1042 -0.34 1042 0 1042 C0.07052872 1063.7947563 0.1232006 1085.5894934 0.15543652 1107.38434124 C0.17081156 1117.50732458 0.19171853 1127.63023643 0.22631836 1137.75317383 C0.25651112 1146.59104922 0.27564271 1155.42887277 0.28226548 1164.26679832 C0.28612798 1168.93303949 0.29500164 1173.59913255 0.31719017 1178.26532555 C0.43752797 1204.60511313 0.04242494 1230.8346721 -5.6875 1256.6875 C-5.94096191 1257.86626709 -6.19442383 1259.04503418 -6.45556641 1260.25952148 C-17.87872528 1311.54724351 -42.16239502 1359.82893495 -78.30859375 1398.12109375 C-80.38994465 1400.34744442 -82.36779113 1402.59489673 -84.3125 1404.9375 C-131.81652563 1459.75877163 -208.57780626 1490.45037062 -279.44694459 1495.78842056 C-285.17788774 1496.12969015 -290.89632068 1496.13419272 -296.63581848 1496.12025452 C-298.60033424 1496.12153615 -298.60033424 1496.12153615 -300.60453719 1496.12284368 C-304.20087746 1496.1250578 -307.7971874 1496.12111012 -311.39352381 1496.11606562 C-315.28631051 1496.11171653 -319.17909571 1496.11321069 -323.07188416 1496.1139679 C-329.80352491 1496.11449032 -336.53515591 1496.11137301 -343.2667942 1496.10573006 C-352.99941736 1496.0975768 -362.73203584 1496.09499593 -372.46466204 1496.09374207 C-388.25810093 1496.09155754 -404.05153463 1496.08491375 -419.8449707 1496.07543945 C-435.17993138 1496.0662498 -450.51489064 1496.05917657 -465.84985352 1496.05493164 C-467.2695273 1496.05453756 -467.2695273 1496.05453756 -468.71788136 1496.05413551 C-473.46629776 1496.0528304 -478.21471417 1496.05156671 -482.96313059 1496.05032361 C-522.30875736 1496.03996967 -561.65437834 1496.02236771 -601 1496 C-601.0688303 1455.14987218 -601.12161182 1414.29975199 -601.15319599 1373.44957766 C-601.15694762 1368.61490389 -601.16083063 1363.78023024 -601.16479492 1358.94555664 C-601.16558185 1357.98315522 -601.16636878 1357.02075379 -601.16717956 1356.02918869 C-601.18019476 1340.49406383 -601.20382692 1324.95897266 -601.23145839 1309.42386771 C-601.25962122 1293.45554386 -601.27619912 1277.48723751 -601.28226548 1261.51888984 C-601.28635949 1251.68421465 -601.29923799 1241.84963468 -601.3237494 1232.01498883 C-601.33974127 1225.24948959 -601.34437034 1218.4840388 -601.34050413 1211.71852208 C-601.33860323 1207.82887308 -601.34128764 1203.93938916 -601.35761642 1200.04977036 C-601.44888931 1177.16609518 -600.09338904 1154.7958759 -595.25 1132.375 C-594.99323486 1131.16900146 -594.73646973 1129.96300293 -594.47192383 1128.72045898 C-590.23236027 1109.39187433 -583.99437447 1091.08563405 -576 1073 C-575.60941406 1072.11570312 -575.21882812 1071.23140625 -574.81640625 1070.3203125 C-564.27384641 1046.74645738 -550.5855817 1024.80881739 -534 1005 C-533.21367188 1004.02933594 -532.42734375 1003.05867188 -531.6171875 1002.05859375 C-525.14907652 994.19129757 -518.11653458 986.90323504 -510.9375 979.6875 C-510.02790527 978.7687207 -509.11831055 977.84994141 -508.18115234 976.90332031 C-502.09561178 970.84512803 -495.74723478 965.30805044 -489 960 C-487.98087524 959.19187866 -487.98087524 959.19187866 -486.94116211 958.36743164 C-435.71459209 918.1755265 -371.80110954 894.88201963 -306.60180664 894.84228516 C-304.86598077 894.83760781 -303.13015611 894.83246275 -301.39433289 894.82688904 C-297.6758492 894.81567379 -293.95737322 894.80720839 -290.23887825 894.80076981 C-284.3496064 894.79001937 -278.46039054 894.76975783 -272.57115173 894.74765015 C-255.83107056 894.68595626 -239.09099415 894.63172212 -222.35083008 894.59863281 C-213.09034958 894.58024881 -203.82996454 894.55127207 -194.56955427 894.5106281 C-189.67881773 894.4896345 -184.78820102 894.47411158 -179.89741707 894.47182083 C-175.29667654 894.46966296 -170.69618613 894.45367819 -166.09552193 894.42743111 C-164.41544477 894.42028196 -162.73533716 894.41811565 -161.05524826 894.42153358 C-141.82786529 894.45437899 -128.88031881 890.62456754 -115 877 C-114.40574219 876.43023438 -113.81148437 875.86046875 -113.19921875 875.2734375 C-66.73207033 826.69918688 -57.51002895 733.31389836 -48.3125 669.5625 C-48.17978699 668.65116302 -48.04707397 667.73982605 -47.91033936 666.8008728 C-44.75217096 644.92712821 -42.49591364 622.96404002 -40 601 C-124.48 601 -208.96 601 -296 601 C-296.12099405 521.53379856 -296.12099405 521.53379856 -296.14648438 488.21289062 C-296.15235689 480.58764629 -296.15841803 472.96240214 -296.16479492 465.3371582 C-296.16598179 463.90385283 -296.16598179 463.90385283 -296.16719264 462.4415918 C-296.18019655 447.0689063 -296.2038234 431.69625489 -296.23145839 416.32358953 C-296.25963611 400.5157178 -296.27620222 384.70786377 -296.28226548 368.89996797 C-296.28635645 359.16663932 -296.29921796 349.43340703 -296.3237494 339.70010809 C-296.33975977 333.00140639 -296.34436629 326.3027536 -296.34050413 319.60403421 C-296.33860602 315.754642 -296.34125405 311.90541664 -296.35761642 308.05605507 C-296.45249169 284.5601429 -295.30113491 261.27115115 -290.25 238.25 C-289.99323486 237.0530249 -289.73646973 235.8560498 -289.47192383 234.62280273 C-277.93363281 182.40726441 -252.15958555 135.17812486 -216 96 C-215.09386355 94.99195253 -214.18898141 93.98277657 -213.28515625 92.97265625 C-208.74920254 87.92428896 -204.19698606 83.03849733 -198.98046875 78.67578125 C-197.61761832 77.52260011 -196.28794416 76.32942314 -194.98828125 75.10546875 C-180.88146642 61.83570751 -164.61869799 50.85507579 -148 41 C-147.22253418 40.5364209 -146.44506836 40.0728418 -145.64404297 39.59521484 C-102.10581596 13.91421814 -50.5312196 0 0 0 Z " fill="#12955D" transform="translate(1485,899)"/>
<path d="M0 0 C1.34180433 -0.00043698 2.68360858 -0.00131421 4.02541238 -0.00258917 C7.68327898 -0.00480927 11.34111591 -0.00084715 14.99897873 0.0041889 C18.9545142 0.00852916 22.91004815 0.00704444 26.86558533 0.00628662 C33.70912252 0.00576365 40.55265014 0.00888677 47.39618492 0.01452446 C57.29064551 0.02267017 67.1851015 0.02525782 77.07956509 0.02651245 C93.13477717 0.02869815 109.18998416 0.03534515 125.24519348 0.04481506 C140.83633906 0.05400166 156.42748324 0.06107639 172.01863098 0.06532288 C172.98054059 0.0655856 173.94245021 0.06584832 174.9335086 0.06611901 C179.75938663 0.0674241 184.58526466 0.06868779 189.41114271 0.06993091 C229.41238911 0.08028851 269.41362983 0.0978937 309.41487122 0.12025452 C309.4837359 40.28234631 309.53650032 80.44443033 309.5680672 120.60656951 C309.57181873 125.3622706 309.57570176 130.11797157 309.57966614 134.87367249 C309.58045307 135.82033391 309.58124 136.76699533 309.58205078 137.74234346 C309.59505789 153.01354764 309.61868546 168.28471748 309.6463296 183.55590138 C309.67451518 199.25868676 309.69107507 214.96145433 309.6971367 230.66426396 C309.70122606 240.33156468 309.71407859 249.9987683 309.73862062 259.66603908 C309.75464076 266.32082964 309.75923537 272.97557097 309.75537535 279.63037935 C309.75347871 283.45356748 309.75610748 287.27658759 309.77248764 291.0997448 C309.91450275 326.05425327 305.98924743 359.72062083 295.41487122 393.12025452 C295.03274475 394.33841858 295.03274475 394.33841858 294.64289856 395.58119202 C276.52938624 452.45421376 239.08868659 504.29734894 191.41487122 540.12025452 C190.76099426 540.61992737 190.10711731 541.11960022 189.4334259 541.63441467 C137.94558341 580.86731981 74.45839679 601.23808066 9.94148254 601.27796936 C8.22182081 601.28264911 6.5021603 601.28779454 4.78250122 601.29336548 C1.10551892 601.30456097 -2.57145569 601.31303546 -6.24844933 601.31948471 C-12.0701224 601.33025049 -17.89173916 601.35051398 -23.71337891 601.37260437 C-40.25873755 601.43425335 -56.80409059 601.48857687 -73.34953308 601.5216217 C-82.50746408 601.5399911 -91.66529828 601.56894544 -100.82315809 601.60962641 C-105.65902796 601.63063617 -110.49477628 601.64614534 -115.3306942 601.64843369 C-119.87564399 601.65058753 -124.4203396 601.66653169 -128.96521187 601.69282341 C-130.6267799 601.69998647 -132.28837883 601.70213199 -133.9499588 601.69872093 C-151.05991007 601.66921968 -163.33805857 605.44517265 -176.02653503 617.42103577 C-231.65262675 676.10443939 -239.46108074 789.68332282 -251.58512878 892.12025452 C-167.43512878 892.12025452 -83.28512878 892.12025452 3.41487122 892.12025452 C3.53586526 972.67092112 3.53586526 972.67092112 3.56135559 1006.42689514 C3.56722825 1014.15191161 3.57328942 1021.8769279 3.57966614 1029.60194397 C3.58085301 1031.0540342 3.58085301 1031.0540342 3.58206385 1032.53545958 C3.59507324 1048.11638826 3.61870319 1063.69728337 3.6463296 1079.27819221 C3.67449193 1095.29623662 3.69107023 1111.31426357 3.6971367 1127.33233172 C3.70123081 1137.19771625 3.71410989 1147.06300585 3.73862062 1156.92836113 C3.75461185 1163.71488512 3.75924169 1170.50136082 3.75537535 1177.28790223 C3.75347435 1181.18970262 3.75616 1185.09133845 3.77248764 1188.99310875 C3.86182815 1211.45817199 2.73957689 1233.60864592 -2.08512878 1255.62025452 C-2.33085632 1256.7506012 -2.57658386 1257.88094788 -2.82975769 1259.04554749 C-7.70044847 1280.27092912 -14.85003202 1301.6296091 -24.58512878 1321.12025452 C-25.04081238 1322.05176331 -25.49649597 1322.98327209 -25.96598816 1323.94300842 C-46.54700846 1365.81726415 -76.88439254 1404.28897865 -114.58512878 1432.12025452 C-115.22498718 1432.59527405 -115.86484558 1433.07029358 -116.52409363 1433.55970764 C-131.91560436 1444.90987198 -148.19214034 1454.99585473 -165.50846863 1463.14173889 C-166.93700675 1463.81486149 -168.36162726 1464.49634131 -169.78288269 1465.18470764 C-196.82675641 1478.25985273 -225.59998014 1486.15855064 -255.27262878 1490.43275452 C-256.36237 1490.59235657 -257.45211121 1490.75195862 -258.57487488 1490.91639709 C-269.96202878 1492.42629135 -280.97084486 1492.61528565 -292.58512878 1493.12025452 C-292.58512878 1395.11025452 -292.58512878 1297.10025452 -292.58512878 1196.12025452 C-231.86512878 1195.79025452 -171.14512878 1195.46025452 -108.58512878 1195.12025452 C-126.40512878 1192.15025452 -126.40512878 1192.15025452 -144.58512878 1189.12025452 C-150.66225701 1187.84454825 -156.65350047 1186.5626254 -162.64762878 1184.99525452 C-163.36131622 1184.81316437 -164.07500366 1184.63107422 -164.81031799 1184.44346619 C-189.23329285 1178.18716307 -213.21403538 1169.90852625 -236.08415222 1159.28187561 C-238.53719922 1158.14251622 -241.00106932 1157.03008329 -243.46794128 1155.92103577 C-276.4046888 1140.93415833 -306.57072323 1120.09719474 -333.58512878 1096.12025452 C-335.03919128 1094.83441467 -335.03919128 1094.83441467 -336.52262878 1093.52259827 C-348.26335863 1082.94637016 -359.93571784 1071.96618662 -369.69450378 1059.50697327 C-371.50900693 1057.2163505 -373.41623135 1055.0792684 -375.39762878 1052.93275452 C-407.67036913 1016.84075496 -430.59644376 970.78320306 -447.96012878 925.99525452 C-448.34035187 925.01474121 -448.34035187 925.01474121 -448.72825623 924.01441956 C-457.58512878 901.08845372 -457.58512878 901.08845372 -457.58512878 897.12025452 C-458.7192646 897.1230199 -458.7192646 897.1230199 -459.87631226 897.12584114 C-478.38603182 897.17026424 -496.89574057 897.20322862 -515.40550232 897.22387886 C-524.35716177 897.23413394 -533.30878535 897.24808201 -542.26042175 897.27113342 C-550.07462434 897.291246 -557.88880092 897.30401269 -565.70302868 897.30843151 C-569.8297263 897.31100909 -573.9563496 897.31694254 -578.08302307 897.33171463 C-600.33551317 897.40825876 -622.59810986 897.27762381 -644.58512878 893.37025452 C-645.56111023 893.20033997 -646.53709167 893.03042542 -647.54264832 892.85536194 C-675.00037268 887.89081901 -701.510362 879.37332638 -726.58512878 867.12025452 C-727.82625427 866.52204895 -727.82625427 866.52204895 -729.092453 865.91175842 C-748.88553024 856.28607244 -767.60301249 844.13050046 -784.58512878 830.12025452 C-785.13298035 829.67246643 -785.68083191 829.22467834 -786.24528503 828.76332092 C-801.62305482 816.11622334 -816.56666184 802.03420982 -828.58512878 786.12025452 C-829.59255542 784.83897762 -830.60182938 783.55915207 -831.61247253 782.28041077 C-862.20806534 743.29949306 -882.70275707 697.4292111 -891.39762878 648.62025452 C-891.69008484 647.00522034 -891.69008484 647.00522034 -891.9884491 645.3575592 C-895.60201 623.61883568 -895.88080392 601.65167003 -895.81726003 579.67211521 C-895.80845999 575.83680039 -895.81155712 572.00149031 -895.81306458 568.16616821 C-895.81410318 561.55258987 -895.80793527 554.93905159 -895.7965889 548.32548332 C-895.78019569 538.76388689 -895.77511192 529.20230943 -895.77261291 519.64070047 C-895.76825724 504.12012097 -895.75500651 488.59956273 -895.73600769 473.07899475 C-895.71759338 458.02007655 -895.7034642 442.96116416 -895.69499207 427.90223694 C-895.69446662 426.97088841 -895.69394117 426.03953989 -895.6933998 425.07996868 C-895.69078935 420.40673621 -895.68826202 415.73350369 -895.685776 411.06027114 C-895.66510988 372.41358407 -895.62994309 333.76692071 -895.58512878 295.12025452 C-856.42516075 295.07434679 -817.26519625 295.03916948 -778.10520662 295.01812386 C-773.46838701 295.01562283 -768.83156745 295.01303415 -764.19474792 295.01039124 C-763.27174911 295.00986661 -762.3487503 295.00934199 -761.39778183 295.00880148 C-746.50743705 295.00012959 -731.61710792 294.98437759 -716.72677239 294.96594892 C-701.41610497 294.94715991 -686.10544567 294.93611889 -670.7947672 294.93207753 C-661.36855593 294.92935101 -651.94238891 294.92078108 -642.51619128 294.90442158 C-636.02774305 294.8937432 -629.53931726 294.89067805 -623.0508609 294.89325176 C-619.32302029 294.89451643 -615.59525626 294.89276052 -611.86742973 294.88184357 C-588.87656025 294.81791079 -565.70015919 295.11993597 -543.02262878 299.30775452 C-541.23332947 299.63030212 -541.23332947 299.63030212 -539.40788269 299.95936584 C-485.51140622 310.05827601 -434.33750398 334.43447259 -394.03434753 371.85462952 C-391.90125011 373.82782968 -389.73153892 375.73320155 -387.52262878 377.62025452 C-379.96114037 384.20556717 -373.01742079 391.43654383 -366.58512878 399.12025452 C-366.15425964 399.62137756 -365.7233905 400.12250061 -365.27946472 400.6388092 C-351.01118362 417.26754569 -338.71905194 435.69477462 -328.58512878 455.12025452 C-328.25110046 455.75270081 -327.91707214 456.38514709 -327.57292175 457.03675842 C-325.50636765 460.96962296 -323.52366656 464.93441749 -321.61735535 468.94740295 C-320.89028341 470.4778997 -320.15443192 472.00424101 -319.41227722 473.52748108 C-318.20755775 476.02345758 -317.04822128 478.53643254 -315.89762878 481.05775452 C-315.5217865 481.8264386 -315.14594421 482.59512268 -314.75871277 483.38710022 C-312.97207424 487.43468675 -312.20136628 490.13183015 -313.58512878 494.41322327 C-314.23162678 495.99065107 -314.9001689 497.55914335 -315.58512878 499.12025452 C-316.32585953 501.062664 -317.0583846 503.008215 -317.78434753 504.95619202 C-318.38484924 506.52953308 -318.38484924 506.52953308 -318.9974823 508.13465881 C-351.7073971 594.34028341 -360.35714456 692.0719133 -354.58512878 805.12025452 C-354.49391754 806.14820129 -354.49391754 806.14820129 -354.40086365 807.19691467 C-351.27097771 842.24521073 -345.7275926 877.1206483 -336.58512878 911.12025452 C-336.27462585 912.28266663 -335.96412292 913.44507874 -335.64421082 914.64271545 C-318.60687562 977.79074606 -290.824131 1037.60994663 -247.58512878 1087.12025452 C-246.89548035 1087.92205139 -246.20583191 1088.72384827 -245.49528503 1089.54994202 C-234.85220173 1101.68428267 -223.37564866 1113.26012752 -210.58512878 1123.12025452 C-209.53370478 1123.97072032 -208.48433286 1124.82372743 -207.43669128 1125.67884827 C-151.4834334 1171.04833347 -79.98756936 1192.69220571 -8.58512878 1194.12025452 C-9.39288757 1193.97946472 -9.39288757 1193.97946472 -10.21696472 1193.83583069 C-64.87051298 1184.0179299 -118.21513951 1161.9599092 -158.58512878 1123.12025452 C-159.21209656 1122.52051819 -159.83906433 1121.92078186 -160.48503113 1121.3028717 C-169.15025227 1112.97100894 -177.22522305 1104.48657117 -184.35124207 1094.79408264 C-185.54456982 1093.17527475 -186.76560132 1091.57700262 -187.98747253 1089.97962952 C-231.02212552 1032.84787013 -249.95312191 956.39704598 -254.32731628 885.84291077 C-254.56151831 882.46117545 -254.84880521 879.090186 -255.15586853 875.71463013 C-257.54958372 849.05670064 -257.91368272 822.42670024 -257.95438385 795.6804924 C-257.96001238 792.92719744 -257.97103484 790.17397226 -257.98338318 787.42070007 C-258.31893071 701.98020141 -246.38848874 615.42189516 -158.12077332 432.24134827 C-156.51335454 430.02111706 -154.92123558 427.79047851 -153.33122253 425.55775452 C-147.07594668 416.79759641 -140.64651934 408.21950961 -133.92790222 399.81019592 C-132.55494501 398.08226686 -131.19699214 396.34349916 -129.84294128 394.60072327 C-124.88107222 388.2200478 -119.82152531 381.95037152 -114.56950378 375.80580139 C-111.68600987 372.43211351 -108.86875035 369.01499269 -106.08512878 365.55775452 C-101.96056888 360.48705901 -97.58896279 355.68832972 -93.14762878 350.89759827 C-90.47779319 348.00391975 -87.88238289 345.05638924 -85.29997253 342.08509827 C-74.44730172 329.65026133 -63.20615423 317.53511153 -51.40153503 305.99916077 C-49.29031275 303.89316706 -47.33186033 301.69537726 -45.38981628 299.43275452 C-40.88587628 294.23334867 -36.02001584 289.4093638 -31.14762878 284.55775452 C-30.2446405 283.65089905 -29.34165222 282.74404358 -28.41130066 281.80970764 C-23.90085654 277.30579566 -19.33164273 272.96202132 -14.49504089 268.81190491 C-11.03180428 265.74444147 -7.82333019 262.42170204 -4.58512878 259.12025452 C-0.07043895 254.51738715 4.50683695 250.09722156 9.39241028 245.8888092 C12.95258872 242.77558701 16.36105007 239.50157608 19.78987122 236.24525452 C25.16503564 231.16321743 30.56374837 226.12023474 36.08674622 221.19837952 C38.75536638 218.81632259 41.39760691 216.40650118 44.03987122 213.99525452 C49.5096957 209.02129975 55.04723062 204.14050842 60.66877747 199.33900452 C61.87584434 198.30779622 63.08287459 197.27654504 64.28987122 196.24525452 C64.89846985 195.72552063 65.50706848 195.20578674 66.1341095 194.67030334 C69.67130079 191.64119857 73.15888176 188.56869149 76.60237122 185.43275452 C80.84195165 181.58174447 85.24419233 177.97181496 89.69612122 174.37025452 C92.33634851 172.18523882 94.88216842 169.92854061 97.41487122 167.62025452 C101.65788592 163.75810885 106.03829987 160.11271143 110.49690247 156.50306702 C113.66904844 153.91269346 116.79521139 151.27332014 119.91487122 148.62025452 C124.68736561 144.56687448 129.50053869 140.57000495 134.35627747 136.61634827 C137.38841525 134.14184502 140.40942721 131.65435929 143.42829895 129.16371155 C155.21101146 119.4438007 167.00737404 109.74799335 179.05403137 100.35609436 C183.76210192 96.66972435 188.37402395 92.8737141 192.97737122 89.05775452 C198.97463124 84.08997498 205.04680206 79.25863551 211.24299622 74.54212952 C214.63621466 71.95124844 217.99830465 69.32396011 221.35237122 66.68275452 C221.9339801 66.22489563 222.51558899 65.76703674 223.11482239 65.29530334 C224.2929438 64.36750625 225.47092197 63.43952724 226.64875793 62.5113678 C230.15046253 59.75318245 233.65688773 57.00100097 237.16242981 54.24769592 C240.09319522 51.9454778 243.02280061 49.64181444 245.95002747 47.33509827 C253.20420596 41.62141724 260.49463204 35.95839487 267.82356262 30.34095764 C270.9643282 27.93165603 274.09876665 25.5141178 277.23469543 23.098526 C280.46377608 20.61375768 283.70041984 18.13919756 286.94221497 15.67103577 C287.71468567 15.08233704 288.48715637 14.49363831 289.28303528 13.88710022 C290.80615174 12.72680613 292.33021145 11.56774901 293.8553009 10.41004944 C294.54913879 9.88129211 295.24297668 9.35253479 295.95783997 8.80775452 C296.57683167 8.3372467 297.19582336 7.86673889 297.83357239 7.38197327 C299.54494317 6.06465272 299.54494317 6.06465272 301.41487122 4.12025452 C232.91327178 27.51493584 165.92358947 58.39812847 103.20149231 94.52992249 C100.29229519 96.19020898 97.36662149 97.81740381 94.43440247 99.43666077 C79.18598606 107.86214694 64.26041533 116.7303373 49.43598938 125.87620544 C47.16970652 127.27115955 44.89913948 128.65901584 42.6287384 130.04725647 C30.8625021 137.26190793 19.28707368 144.72378016 7.82014465 152.40467834 C5.15412752 154.18994892 2.48400079 155.96894014 -0.18669128 157.74720764 C-14.37055433 167.21063611 -28.3815146 176.90862901 -42.08512878 187.05775452 C-42.86718689 187.63565735 -43.649245 188.21356018 -44.45500183 188.80897522 C-64.01146223 203.30144537 -83.21030802 218.26044298 -101.74943542 234.03651428 C-105.15457007 236.92918903 -108.60238653 239.75839919 -112.08512878 242.55775452 C-117.46798816 246.93476572 -122.52784221 251.61579579 -127.59684753 256.34681702 C-129.88871288 258.48379766 -132.21271636 260.572488 -134.58512878 262.62025452 C-142.87030493 269.80190826 -150.85016338 277.3045987 -158.54606628 285.11244202 C-160.4777672 287.01453832 -162.46426472 288.79461399 -164.52262878 290.55775452 C-171.46729735 296.534043 -177.7928831 303.09913692 -183.74137878 310.05775452 C-185.93309191 312.5095014 -188.24579983 314.80911024 -190.58512878 317.12025452 C-194.1559639 320.65338851 -197.55064104 324.25398546 -200.81559753 328.06947327 C-202.82298901 330.39592034 -204.88979516 332.66218137 -206.96012878 334.93275452 C-210.78427357 339.17466302 -214.43402334 343.52576548 -218.02262878 347.96791077 C-219.91533791 350.30885332 -221.83763054 352.62274663 -223.77262878 354.92884827 C-232.49178884 365.3485844 -240.65643616 376.08923177 -248.58512878 387.12025452 C-249.11380554 387.85276428 -249.6424823 388.58527405 -250.18717957 389.33998108 C-264.48489886 409.1892122 -277.3042745 429.92964989 -289.37809753 451.19837952 C-289.975578 452.14970764 -289.975578 452.14970764 -290.58512878 453.12025452 C-290.91512878 453.12025452 -291.24512878 453.12025452 -291.58512878 453.12025452 C-291.65558523 430.75215013 -291.70829476 408.38406436 -291.7405653 386.01587105 C-291.75595534 375.62712492 -291.77689206 365.23844823 -291.81144714 354.8497467 C-291.84159285 345.78227145 -291.86076071 336.71484652 -291.86739427 327.64732254 C-291.87126447 322.85765901 -291.88019017 318.06813934 -291.90231895 313.27852249 C-292.07492059 274.36106123 -288.04840263 238.24476233 -275.58512878 201.12025452 C-275.33150574 200.35954651 -275.07788269 199.5988385 -274.8165741 198.81507874 C-263.79805988 166.31123884 -246.22555426 136.60543695 -224.58512878 110.12025452 C-223.93568298 109.31418762 -223.93568298 109.31418762 -223.27311707 108.49183655 C-216.65326954 100.31147293 -209.43694338 92.77109694 -202.02262878 85.30775452 C-201.1604071 84.4362677 -200.29818542 83.56478088 -199.40983582 82.66688538 C-193.44394405 76.7298007 -187.18482468 71.33889484 -180.58512878 66.12025452 C-179.87413025 65.54992493 -179.16313171 64.97959534 -178.43058777 64.39198303 C-128.50041897 24.54559259 -64.19118497 -0.15266873 0 0 Z " fill="#12955D" transform="translate(1184.5851287841797,-0.1202545166015625)"/>
<path d="M0 0 C3.81706861 0.00436263 7.6341358 0.002854 11.45120621 0.00209773 C18.04692367 0.00157614 24.64263115 0.00468456 31.2383461 0.01033556 C40.77436673 0.01850037 50.31038259 0.02107086 59.84640634 0.02232356 C75.32205687 0.02450629 90.7977021 0.03114517 106.27334976 0.04062617 C121.29678699 0.0498205 136.32022278 0.05689142 151.34366226 0.06113398 C152.73527083 0.06152807 152.73527083 0.06152807 154.1549927 0.06193011 C158.80969277 0.06323525 163.46439285 0.06449894 168.11909294 0.06574202 C206.66791143 0.07609036 245.21672399 0.09368737 283.76553726 0.11606562 C283.81144559 39.14863955 283.8466226 78.18120992 283.86766792 117.21380552 C283.87016894 121.83560385 283.87275763 126.45740213 283.87540054 131.07920039 C283.87618747 132.45921268 283.87618747 132.45921268 283.8769903 133.86710402 C283.88566205 148.70894987 283.90141396 163.55078003 283.91984285 178.39261661 C283.93863227 193.65356348 283.94967297 208.9145022 283.95371425 224.17546016 C283.95644069 233.57096203 283.96501016 242.9664195 283.9813702 252.36190768 C283.99204908 258.82933115 283.99511362 265.2967321 283.99254002 271.76416371 C283.99127542 275.47985283 283.99303035 279.1954651 284.00394821 282.91114008 C284.06855765 306.06786703 283.61784646 329.31634928 279.57803726 352.17856562 C279.36300552 353.41840205 279.14797379 354.65823847 278.92642593 355.9356457 C267.0384788 421.69884671 231.44135606 487.74271137 178.58584976 529.85044062 C176.72050184 531.34891956 174.88094905 532.88014472 173.07022476 534.44419062 C159.20777571 546.41455053 143.70595399 556.16952573 127.76553726 565.11606562 C127.12036148 565.48650996 126.4751857 565.85695429 125.81045914 566.23862422 C95.72179458 583.46142439 61.03187063 594.30979102 26.76553726 599.11606562 C27.3085297 599.11742215 27.85152214 599.11877868 28.4109689 599.12017632 C60.72912731 599.20115984 93.04723969 599.29224738 125.36533219 599.39611723 C129.26224277 599.40863327 133.1591536 599.42106648 137.05606461 599.43344843 C137.83173636 599.43591443 138.60740812 599.43838042 139.40658508 599.44092114 C151.8990354 599.48044016 164.39149455 599.51327878 176.88397028 599.54356544 C189.74142232 599.57488879 202.59883761 599.6135838 215.45624816 599.65885568 C223.36384555 599.68647457 231.27141665 599.70861994 239.17904876 599.72332813 C245.28444798 599.73530661 251.38977316 599.75763463 257.49512863 599.78344882 C259.96908102 599.79238049 262.44304746 599.79818017 264.91701508 599.80027926 C287.88104642 599.82321479 311.35936106 600.20981027 334.01553726 604.30356562 C335.23676285 604.51642207 336.45798843 604.72927851 337.71622086 604.94858515 C384.89594829 613.5328185 430.1206179 633.28842701 467.76553726 663.11606562 C468.6717482 663.83020625 469.57795914 664.54434687 470.51163101 665.28012812 C487.95062761 679.28079773 505.29493862 695.2140177 518.76553726 713.11606562 C519.70104971 714.32362822 520.63730412 715.53061623 521.57413101 716.73715937 C553.79785653 758.58285093 574.61559552 807.74012836 581.76553726 860.11606562 C581.93383986 861.30995811 582.10214245 862.5038506 582.27554512 863.73392165 C584.19716326 878.65776304 584.03947856 893.61186086 583.9976685 908.62869811 C583.9889235 912.57863914 583.99196187 916.52857489 583.99347305 920.4785229 C583.99451501 927.30010465 583.98831114 934.12164775 583.97699738 940.94321978 C583.96065093 950.80571398 583.95552508 960.66818974 583.95302139 970.53069601 C583.94865853 986.53710907 583.93538793 1002.54350159 583.91641617 1018.54990351 C583.89802071 1034.08636081 583.88388221 1049.6228125 583.87540054 1065.15927851 C583.87461237 1066.59899025 583.87461237 1066.59899025 583.87380828 1068.06778707 C583.87119795 1072.8835 583.8686706 1077.69921297 583.86618447 1082.51492596 C583.84549591 1122.38198688 583.81030908 1162.24902489 583.76553726 1202.11606562 C543.90051155 1202.16194308 504.03548931 1202.19713544 464.17044243 1202.21819628 C459.45336137 1202.2206974 454.73628036 1202.22328607 450.01919937 1202.2259289 C449.08019824 1202.22645352 448.14119712 1202.22697814 447.17374141 1202.22751866 C432.01233369 1202.23619767 416.8509413 1202.25195371 401.68954264 1202.27037121 C386.10769154 1202.2891402 370.52584841 1202.30019707 354.94398648 1202.30424261 C345.34579099 1202.30697322 335.74763882 1202.315566 326.14945669 1202.33189856 C319.54843806 1202.34255205 312.9474415 1202.34564754 306.34641492 1202.34306838 C302.55021144 1202.34179995 298.75408313 1202.34360479 294.95789337 1202.35447657 C274.20899792 1202.41095132 253.51434291 1201.98993096 233.01553726 1198.42856562 C232.04712906 1198.26267939 231.07872086 1198.09679316 230.08096695 1197.92588007 C180.53969672 1189.00482146 133.83063962 1167.90484112 94.76553726 1136.11606562 C94.25684097 1135.70356562 93.74814468 1135.29106562 93.22403336 1134.86606562 C86.39119072 1129.2962057 79.8441019 1123.43231598 73.39053726 1117.42856562 C72.40960098 1116.52038081 72.40960098 1116.52038081 71.40884781 1115.59384882 C66.88646544 1111.34219881 62.79620801 1106.83172227 58.76553726 1102.11606562 C57.81702879 1101.04396937 56.86662256 1099.97354792 55.91397476 1098.90512812 C43.70408346 1085.0498397 33.16543674 1069.99852221 23.76553726 1054.11606562 C23.36270523 1053.44204707 22.9598732 1052.76802851 22.54483414 1052.07358515 C-3.23807782 1008.5879052 -17.4771923 957.1559531 -17.35471725 906.60050166 C-17.35599889 904.63726753 -17.35599889 904.63726753 -17.35730642 902.63437212 C-17.35952329 899.03577253 -17.35556896 895.43720317 -17.35052836 891.83860743 C-17.34618334 887.94512149 -17.34767314 884.05163705 -17.34843063 880.15814936 C-17.34895331 873.42376267 -17.34583332 866.68938572 -17.34019279 859.95500147 C-17.33204302 850.21838232 -17.32945902 840.48176784 -17.3282048 830.74514565 C-17.32601974 814.94560589 -17.31937446 799.14607132 -17.30990219 783.34653437 C-17.30071395 768.00473775 -17.2936515 752.66294256 -17.28939438 737.32114375 C-17.28912638 736.36479375 -17.28885838 735.40844376 -17.28858227 734.42311347 C-17.28650267 726.94309774 -17.28454581 719.46308197 -17.2826277 711.9830662 C-17.27320523 675.36072792 -17.25308427 638.73840262 -17.23446274 602.11606562 C-116.56446274 602.11606562 -215.89446274 602.11606562 -318.23446274 602.11606562 C-318.31512544 524.03457383 -318.31512544 524.03457383 -318.33211899 491.31528437 C-318.3360341 483.82749131 -318.34007488 476.33969834 -318.34432602 468.85190547 C-318.34485352 467.91357092 -318.34538101 466.97523637 -318.3459245 466.00846744 C-318.35459779 450.9053132 -318.3703513 435.80217435 -318.38876833 420.69902921 C-318.40754217 405.17254389 -318.4185952 389.64606657 -318.42263973 374.11957037 C-318.42536934 364.55669359 -318.4339566 354.99386033 -318.45029567 345.43099695 C-318.46095519 338.85286473 -318.46404334 332.27475465 -318.46146549 325.69661444 C-318.46019798 321.91446381 -318.461991 318.13238863 -318.47287369 314.35025179 C-318.53308337 292.31877502 -317.95118162 270.41657172 -314.04696274 248.67856562 C-313.83410629 247.47466181 -313.62124985 246.270758 -313.40194321 245.03037226 C-311.1466896 232.82202893 -307.9702468 220.94875557 -304.23446274 209.11606562 C-303.95344711 208.22596797 -303.67243149 207.33587031 -303.38290024 206.4188 C-299.25133858 193.57041551 -294.09904729 181.26497108 -288.23446274 169.11606562 C-287.83275864 168.27994746 -287.43105453 167.44382929 -287.01717758 166.58237422 C-277.48030764 146.97901689 -265.51143421 128.4337429 -251.54110336 111.68296015 C-250.20134388 110.07635022 -248.88239554 108.45392917 -247.56258774 106.83090937 C-235.89304781 92.67988031 -222.81502081 79.2671729 -208.23446274 68.11606562 C-207.18532077 67.26860402 -206.13858466 66.41815829 -205.09383774 65.56528437 C-177.37192416 43.076425 -145.83936959 26.81869621 -112.23446274 15.11606562 C-110.98874496 14.68100703 -110.98874496 14.68100703 -109.71786118 14.23715937 C-88.8141769 7.09384506 -66.2044006 3.06560091 -44.23446274 1.11606562 C-43.18909851 1.02303943 -42.14373428 0.93001324 -41.06669235 0.83416808 C-27.395714 -0.18664066 -13.70036661 -0.01967805 0 0 Z " fill="#02569E" transform="translate(1804.234462738037,294.88393437862396)"/>
<path d="M0 0 C39.89028175 -0.06887672 79.78055565 -0.12163515 119.67088513 -0.15319599 C124.3952549 -0.15694748 129.11962455 -0.16083051 133.84399414 -0.16479492 C135.25462096 -0.16597532 135.25462096 -0.16597532 136.69374529 -0.16717956 C151.86080962 -0.18018384 167.02783935 -0.2038098 182.19488325 -0.23145839 C197.79258229 -0.25965193 213.39026339 -0.27620551 228.98798686 -0.28226548 C238.58925965 -0.28635322 248.19043459 -0.29919664 257.79167721 -0.3237494 C264.40255663 -0.33977946 271.0133865 -0.34436199 277.62428387 -0.34050413 C281.42126793 -0.33860898 285.21808278 -0.3412182 289.01503563 -0.35761642 C364.69724765 -0.66757342 438.62865163 21.00324589 496 72 C497.04414062 72.8971875 497.04414062 72.8971875 498.109375 73.8125 C500.09461794 75.51882451 502.05086593 77.25250048 504 79 C504.47937012 79.42893555 504.95874023 79.85787109 505.45263672 80.29980469 C512.74589044 86.85020647 519.61139079 93.54662258 526 101 C526.83789062 101.95003906 527.67578125 102.90007812 528.5390625 103.87890625 C540.46233529 117.52102519 550.77952127 132.42070008 560 148 C560.60424805 149.01102783 560.60424805 149.01102783 561.22070312 150.04248047 C587.00361508 193.52816042 601.24272957 244.96011252 601.12025452 295.51556396 C601.12110894 296.82438671 601.12196337 298.13320946 601.12284368 299.48169351 C601.12506056 303.0802931 601.12110622 306.67886245 601.11606562 310.27745819 C601.11172061 314.17094414 601.1132104 318.06442857 601.1139679 321.95791626 C601.11449057 328.69230295 601.11137058 335.42667991 601.10573006 342.16106415 C601.09758028 351.8976833 601.09499628 361.63429778 601.09374207 371.37091997 C601.091557 387.17045973 601.08491173 402.9699943 601.07543945 418.76953125 C601.06625121 434.11132787 601.05918876 449.45312307 601.05493164 464.79492188 C601.05466364 465.75127187 601.05439565 466.70762186 601.05411953 467.69295216 C601.05203993 475.17296789 601.05008307 482.65298365 601.04816496 490.13299942 C601.03874249 526.7553377 601.01862153 563.37766301 601 600 C696.7 600 792.4 600 891 600 C891.0806627 676.95669528 891.0806627 676.95669528 891.09765625 709.23242188 C891.10157123 716.61840829 891.10561197 724.00439463 891.10986328 731.39038086 C891.11039078 732.31592842 891.11091828 733.24147599 891.11146176 734.19507045 C891.12012965 749.08284073 891.13588011 763.97059535 891.15430559 778.85835639 C891.17309461 794.16902381 891.18413562 809.47968311 891.18817699 824.79036158 C891.19090351 834.21657285 891.19947344 843.64273987 891.21583293 853.0689375 C891.22651132 859.55738573 891.22957647 866.04581153 891.22700275 872.53426788 C891.22573808 876.26210849 891.227494 879.98987252 891.23841095 883.71769905 C891.30234434 906.70879121 890.99960048 929.88467935 886.8125 952.5625 C886.59819336 953.75319092 886.38388672 954.94388184 886.16308594 956.1706543 C876.0964041 1009.95336147 851.60326622 1061.33226914 814.26953125 1101.546875 C812.27530546 1103.70242371 810.34716597 1105.89486135 808.4375 1108.125 C802.16676602 1115.32309605 795.27865295 1121.83714768 788 1128 C787.16339844 1128.72574219 786.32679688 1129.45148438 785.46484375 1130.19921875 C756.50394251 1154.93748514 723.07782898 1173.85140486 687 1186 C686.04528809 1186.32194336 685.09057617 1186.64388672 684.10693359 1186.97558594 C665.54918026 1193.1310519 646.71443794 1197.33798154 627.3125 1199.75 C625.92732178 1199.92354004 625.92732178 1199.92354004 624.51416016 1200.10058594 C605.02043053 1202.30717016 585.36478341 1202.14507396 565.77701008 1202.11606562 C562.04932811 1202.1116799 558.32164745 1202.1132132 554.59396362 1202.1139679 C548.16094224 1202.11448807 541.72793114 1202.11139477 535.29491234 1202.10573006 C525.99425532 1202.09754559 516.69360318 1202.09499278 507.39294294 1202.09374207 C492.29719679 1202.09156237 477.20145609 1202.08493185 462.10571289 1202.07543945 C447.45597358 1202.06623719 432.80623576 1202.05917018 418.15649414 1202.05493164 C417.25097768 1202.05466892 416.34546122 1202.05440619 415.41250487 1202.05413551 C410.86904647 1202.05283032 406.32558806 1202.05156664 401.78212965 1202.05032361 C364.18808258 1202.03998474 326.59404172 1202.02239614 289 1202 C288.95410782 1162.42380607 288.91892278 1122.84761564 288.89786934 1083.27140037 C288.89536827 1078.58693939 288.89277959 1073.90247847 288.89013672 1069.21801758 C288.88934979 1067.81927466 288.88934979 1067.81927466 288.88854696 1066.39227431 C288.87987142 1051.34214861 288.86411734 1036.29203836 288.84569441 1021.24192179 C288.82691568 1005.77080226 288.81586652 990.29969075 288.81182301 974.82856029 C288.80909439 965.30100221 288.80051271 955.77348785 288.78416707 946.24594324 C288.77350147 939.69069743 288.77042074 933.13547383 288.77299725 926.58021999 C288.77426384 922.8121222 288.77248275 919.04410015 288.76158905 915.27601624 C288.70016706 892.90540976 289.19273402 870.57033858 293.1875 848.5 C293.40035645 847.30060791 293.61321289 846.10121582 293.83251953 844.86547852 C296.09257479 832.67611866 299.26955533 820.81577801 303 809 C303.28101563 808.10990234 303.56203125 807.21980469 303.8515625 806.30273438 C307.98312415 793.45434989 313.13541545 781.14890546 319 769 C319.4017041 768.16388184 319.8034082 767.32776367 320.21728516 766.46630859 C329.84123386 746.68395795 341.99659882 727.97381962 356 711 C356.44778809 710.45214844 356.89557617 709.90429688 357.35693359 709.33984375 C370.00403117 693.96207396 384.08604469 679.01846694 400 667 C401.2812769 665.99257336 402.56110244 664.9832994 403.83984375 663.97265625 C447.14328695 629.9843719 497.61106254 609.70482915 552 602 C551.42298969 601.99902319 550.84597939 601.99804638 550.25148392 601.99703997 C515.95463278 601.93860373 481.65785185 601.86468412 447.36107904 601.77101372 C443.23111679 601.7597473 439.10115421 601.74860856 434.97119141 601.73754883 C434.14908656 601.73534514 433.32698172 601.73314146 432.47996461 601.730871 C419.21717585 601.69562316 405.95438714 601.6706887 392.69156909 601.64965298 C379.05442644 601.62779069 365.41734388 601.59464278 351.78025246 601.55129844 C343.3843425 601.52496002 334.98850723 601.50713408 326.59255809 601.50065396 C320.81332441 601.49534494 315.03418422 601.47894698 309.25500089 601.45433434 C305.93455513 601.44050485 302.61441509 601.43273815 299.29392052 601.43499184 C278.95044669 601.44442948 258.92173038 600.11855222 239 595.75 C237.54146606 595.43639526 237.54146606 595.43639526 236.0534668 595.11645508 C192.48767808 585.44799005 150.97356595 566.88875693 116 539 C115.01 538.22140625 114.02 537.4428125 113 536.640625 C95.63943991 522.73244902 78.39524487 506.80190487 65 489 C64.06448755 487.7924374 63.12823315 486.58544939 62.19140625 485.37890625 C29.96768073 443.53321469 9.14994174 394.37593726 2 342 C1.83169741 340.80610751 1.66339481 339.61221502 1.48999214 338.38214397 C-0.431626 323.45830258 -0.2739413 308.50420476 -0.23213124 293.48736751 C-0.22338624 289.53742648 -0.2264246 285.58749073 -0.22793579 281.63754272 C-0.22897775 274.81596097 -0.22277387 267.99441787 -0.21146011 261.17284584 C-0.19511367 251.31035164 -0.18998782 241.44787588 -0.18748413 231.58536961 C-0.18312127 215.57895655 -0.16985067 199.57256403 -0.15087891 183.56616211 C-0.13248345 168.02970481 -0.11834495 152.49325312 -0.10986328 136.95678711 C-0.10933783 135.99697928 -0.10881239 135.03717146 -0.10827102 134.04827855 C-0.10566069 129.23256562 -0.10313334 124.41685266 -0.10064721 119.60113966 C-0.07995865 79.73407874 -0.04477182 39.86704073 0 0 Z " fill="#02569F" transform="translate(0,895)"/>
<path d="M0 0 C12.72911406 -0.11732859 25.4580936 -0.20542649 38.187644 -0.25906086 C44.10242635 -0.28483965 50.01683128 -0.31963534 55.93139648 -0.37719727 C82.78930452 -0.63158516 108.60726731 -0.34996848 135 5 C137.50413602 5.48252822 140.00844877 5.96414019 142.51293945 6.44482422 C179.79424728 13.65119644 215.97539367 26.23609379 250 43 C250.86657227 43.42635742 251.73314453 43.85271484 252.62597656 44.29199219 C281.91080068 58.85931496 309.53581538 77.63188955 333.59375 99.8046875 C335.59915406 101.63429315 337.63460994 103.40890524 339.69140625 105.1796875 C344.46367963 109.34722835 348.96060973 113.76906962 353.4375 118.25 C354.27643799 119.08901855 355.11537598 119.92803711 355.97973633 120.79248047 C361.03076666 125.89028416 365.77897413 131.02966792 370.1875 136.6953125 C371.92789512 138.90831491 373.76682515 140.94327734 375.6875 143 C406.50572777 177.37182064 458 251.02754762 458 299 C459.15041417 298.99585193 459.15041417 298.99585193 460.32406902 298.99162006 C479.12761177 298.9248912 497.93113039 298.87549416 516.73476696 298.84456348 C525.82867415 298.82920182 534.92250153 298.80832163 544.01635742 298.77368164 C551.95769177 298.74344664 559.89896823 298.72434768 567.84035856 298.71773452 C572.03153087 298.71387889 576.22253783 298.70505217 580.41365623 298.68280983 C656.38717236 298.29593135 734.99557183 318.21911355 791.69921875 371.83984375 C793.66504138 373.68551424 795.66873396 375.4476486 797.7109375 377.20703125 C809.0771843 387.117997 819.86167649 397.99475146 829 410 C830.01049838 411.28351381 831.02232559 412.56598206 832.03515625 413.84765625 C862.04515276 452.09307809 881.60907594 496.37518321 891 544 C891.16580566 544.82935059 891.33161133 545.65870117 891.50244141 546.51318359 C896.21837918 570.81216694 896.30469733 595.79802719 896.23213124 620.45816422 C896.22330255 624.24230094 896.22643026 628.02643323 896.22793579 631.81057739 C896.22897268 638.33079448 896.22282341 644.85097083 896.21146011 651.37117767 C896.19504263 660.79770977 896.18998072 670.22422264 896.18748413 679.65076748 C896.18313215 694.95338733 896.16989174 710.25598559 896.15087891 725.55859375 C896.13245483 740.40299371 896.1183305 755.24738775 896.10986328 770.09179688 C896.10907511 771.46971543 896.10907511 771.46971543 896.10827102 772.87547073 C896.1056605 777.48495502 896.10313319 782.09443935 896.10064721 786.7039237 C896.07999269 824.80263091 896.0448363 862.90131401 896 901 C857.68950532 901.045947 819.37901484 901.08110473 781.0684981 901.10213066 C776.52824999 901.10463157 771.98800194 901.10722026 767.44775391 901.10986328 C766.09213855 901.11065021 766.09213855 901.11065021 764.70913702 901.11145304 C750.14549618 901.12011571 735.5818714 901.13586243 721.01824003 901.15430559 C706.03412208 901.1731206 691.05001244 901.18414101 676.06588316 901.18817699 C666.84697479 901.19089822 657.62811184 901.19943839 648.40921748 901.21583293 C642.05622605 901.22654368 635.70325752 901.22956944 629.35025775 901.22700275 C625.70483281 901.22574292 622.05948623 901.22743487 618.41407585 901.23841095 C603.5230408 901.28088851 588.6969562 901.01696562 573.83557129 900.09518433 C572.54006898 900.01549852 571.24456668 899.93581272 569.90980673 899.8537122 C528.43912603 897.05426541 488.62183504 884.38968571 452 865 C451.36320312 864.66564941 450.72640625 864.33129883 450.0703125 863.98681641 C429.88406071 853.30087137 411.17804185 839.79778776 394.44921875 824.265625 C392.31612133 822.29242483 390.14641013 820.38705297 387.9375 818.5 C380.37888712 811.91719165 373.41832197 804.692093 367 797 C366.54254395 796.45633789 366.08508789 795.91267578 365.61376953 795.35253906 C357.45669832 785.62788932 349.94118868 775.62710152 343 765 C342.32710937 763.97003906 341.65421875 762.94007813 340.9609375 761.87890625 C338.90418637 758.62449962 336.92952676 755.33070101 335 752 C334.33315186 750.85265381 334.33315186 750.85265381 333.65283203 749.68212891 C327.52398322 739.04008839 321.98982057 728.24543999 317.1875 716.9375 C316.74873535 715.92067139 316.3099707 714.90384277 315.85791016 713.85620117 C315.46522949 712.90205322 315.07254883 711.94790527 314.66796875 710.96484375 C314.32016357 710.1255835 313.9723584 709.28632324 313.61401367 708.42163086 C312.49059084 703.99092267 314.14902033 700.32333166 315.8203125 696.21875 C316.18705078 695.30649658 316.55378906 694.39424316 316.93164062 693.4543457 C317.52235352 691.99194458 317.52235352 691.99194458 318.125 690.5 C347.83017522 615.28965045 357.13870588 530.33794008 311.48876953 210.40429688 C295.36662369 173.53857015 274.48243975 139.32340429 248 109 C247.31035156 108.19820312 246.62070313 107.39640625 245.91015625 106.5703125 C235.25502019 94.42223031 223.76515374 82.91450845 211 73 C209.86196927 72.06436844 208.7267294 71.12533577 207.59375 70.18359375 C198.51193133 62.67958971 189.02496143 56.17506253 179 50 C178.33838867 49.58540527 177.67677734 49.17081055 176.99511719 48.74365234 C123.59794126 15.38033514 62.11123467 3.32116728 0 1 C0 0.67 0 0.34 0 0 Z " fill="#02569F" transform="translate(1192,1196)"/>
<path d="M0 0 C39.15996804 -0.04590772 78.31993253 -0.08108504 117.47992216 -0.10213066 C122.11674177 -0.10463168 126.75356133 -0.10722037 131.39038086 -0.10986328 C132.31337967 -0.1103879 133.23637848 -0.11091252 134.18734696 -0.11145304 C149.07769173 -0.12012493 163.96802086 -0.13587692 178.85835639 -0.15430559 C194.16902381 -0.17309461 209.47968311 -0.18413562 224.79036158 -0.18817699 C234.21657285 -0.19090351 243.64273987 -0.19947344 253.0689375 -0.21583293 C259.55738573 -0.22651132 266.04581153 -0.22957647 272.53426788 -0.22700275 C276.26210849 -0.22573808 279.98987252 -0.227494 283.71769905 -0.23841095 C306.70856853 -0.30234372 329.8849696 -0.00031854 352.5625 4.1875 C353.75536621 4.40253174 354.94823242 4.61756348 356.17724609 4.83911133 C410.07372257 14.93802149 461.24762481 39.31421807 501.55078125 76.734375 C503.68387867 78.70757517 505.85358987 80.61294703 508.0625 82.5 C515.62398841 89.08531265 522.567708 96.31628932 529 104 C529.43086914 104.50112305 529.86173828 105.00224609 530.30566406 105.51855469 C544.57394517 122.14729117 556.86607685 140.5745201 567 160 C567.33402832 160.63244629 567.66805664 161.26489258 568.01220703 161.91650391 C570.07876113 165.84936844 572.06146222 169.81416297 573.96777344 173.82714844 C574.69484538 175.35764519 575.43069687 176.88398649 576.17285156 178.40722656 C577.37757104 180.90320306 578.5369075 183.41617803 579.6875 185.9375 C580.06334229 186.70618408 580.43918457 187.47486816 580.82641602 188.2668457 C582.61305455 192.31443223 583.38376251 195.01157563 582 199.29296875 C581.35350201 200.87039655 580.68495989 202.43888883 580 204 C579.25926926 205.94240948 578.52674418 207.88796049 577.80078125 209.8359375 C577.20027954 211.40927856 577.20027954 211.40927856 576.58764648 213.0144043 C543.87773168 299.22002889 535.22798423 396.95165878 541 510 C541.09121124 511.02794678 541.09121124 511.02794678 541.18426514 512.07666016 C544.31415108 547.12495621 549.85753618 582.00039378 559 616 C559.31050293 617.16241211 559.62100586 618.32482422 559.94091797 619.52246094 C576.97825317 682.67049154 604.76099778 742.48969212 648 792 C648.68964844 792.80179688 649.37929688 793.60359375 650.08984375 794.4296875 C660.73292705 806.56402815 672.20948012 818.139873 685 828 C686.051424 828.85046581 687.10079593 829.70347291 688.1484375 830.55859375 C748.40163501 879.41466856 822.05866199 896.5094228 898 900 C898 900.33 898 900.66 898 901 C885.14050108 901.11731032 872.28113521 901.20541768 859.42120457 901.25906086 C853.44589017 901.28484343 847.47094917 901.31964667 841.49584961 901.37719727 C814.50824505 901.63016318 788.51635463 901.4192863 762 896 C759.43380212 895.49724434 756.86755854 894.99472192 754.30126953 894.49243164 C720.70847751 887.8578322 688.10375572 877.29486518 657 863 C655.36465676 862.26415972 653.72924221 861.52847787 652.09375 860.79296875 C619.16872511 845.79412917 589.0109423 824.97386638 562 801 C561.030625 800.14277344 560.06125 799.28554687 559.0625 798.40234375 C547.32177015 787.82611564 535.64941095 776.8459321 525.890625 764.38671875 C524.07612186 762.09609598 522.16889743 759.95901388 520.1875 757.8125 C487.91475965 721.72050044 464.98868503 675.66294854 447.625 630.875 C447.24477692 629.89448669 447.24477692 629.89448669 446.85687256 628.89416504 C438 605.9681992 438 605.9681992 438 602 C436.86586418 602.00276538 436.86586418 602.00276538 435.70881653 602.00558662 C417.19909696 602.05000973 398.68938821 602.0829741 380.17962646 602.10362434 C371.22796702 602.11387943 362.27634343 602.12782749 353.32470703 602.15087891 C345.51050444 602.17099149 337.69632786 602.18375817 329.88210011 602.18817699 C325.75540249 602.19075457 321.62877919 602.19668802 317.50210571 602.21146011 C295.24961562 602.28800424 272.98701893 602.1573693 251 598.25 C250.02401855 598.08008545 249.04803711 597.9101709 248.04248047 597.73510742 C220.5847561 592.77056449 194.07476678 584.25307187 169 572 C167.75887451 571.40179443 167.75887451 571.40179443 166.49267578 570.79150391 C146.69959854 561.16581792 127.9821163 549.01024594 111 535 C110.45214844 534.55221191 109.90429688 534.10442383 109.33984375 533.64306641 C93.96207396 520.99596883 79.01846694 506.91395531 67 491 C65.99257336 489.7187231 64.9832994 488.43889756 63.97265625 487.16015625 C33.37706345 448.17923855 12.88237172 402.30895658 4.1875 353.5 C3.9925293 352.42331055 3.79755859 351.34662109 3.59667969 350.23730469 C-0.01688121 328.49858117 -0.29567514 306.53141551 -0.23213124 284.55186069 C-0.2233312 280.71654587 -0.22642834 276.8812358 -0.22793579 273.0459137 C-0.2289744 266.43233535 -0.22280648 259.81879707 -0.21146011 253.20522881 C-0.1950669 243.64363237 -0.18998314 234.08205491 -0.18748413 224.52044595 C-0.18312845 208.99986645 -0.16987772 193.47930822 -0.15087891 177.95874023 C-0.13246459 162.89982203 -0.11833542 147.84090964 -0.10986328 132.78198242 C-0.10933783 131.8506339 -0.10881239 130.91928537 -0.10827102 129.95971417 C-0.10566057 125.28648169 -0.10313324 120.61324917 -0.10064721 115.94001663 C-0.0799811 77.29332955 -0.0448143 38.64666619 0 0 Z " fill="#02569E" transform="translate(289,295)"/>
<path d="M0 0 C2.70404182 -0.00300225 5.40808098 -0.00638048 8.11212158 -0.01017761 C14.62164146 -0.01837403 21.13115228 -0.0212273 27.64067689 -0.02178999 C32.94440932 -0.02227015 38.24813884 -0.02434935 43.55187035 -0.02749062 C58.67955236 -0.03626452 73.80722737 -0.04091475 88.93491194 -0.04016014 C89.74513612 -0.04012019 90.5553603 -0.04008023 91.39013672 -0.04003906 C92.20138039 -0.03999818 93.01262405 -0.0399573 93.84845086 -0.03991518 C106.98909431 -0.0395089 120.12970908 -0.04908262 133.27034424 -0.06317743 C146.85183493 -0.07762718 160.43331171 -0.08444303 174.01481026 -0.08358365 C181.60430538 -0.08325479 189.19377037 -0.08586347 196.78325844 -0.0967617 C203.24310139 -0.1059807 209.70290054 -0.10795026 216.1627473 -0.10125228 C219.44154257 -0.09804428 222.72023919 -0.09885946 225.99902916 -0.10660553 C249.28776766 -0.15798575 273.07056669 0.18067825 296.04956055 4.33276367 C297.27078613 4.54562012 298.49201172 4.75847656 299.75024414 4.9777832 C346.92997157 13.56201655 392.15464118 33.31762506 429.79956055 63.14526367 C430.70577148 63.8594043 431.61198242 64.57354492 432.5456543 65.30932617 C449.98465089 79.30999578 467.3289619 95.24321575 480.79956055 113.14526367 C481.735073 114.35282627 482.6713274 115.55981428 483.6081543 116.76635742 C515.83187982 158.61204898 536.64961881 207.76932641 543.79956055 260.14526367 C543.96786314 261.33915616 544.13616573 262.53304865 544.30956841 263.7631197 C546.23118654 278.68696109 546.07350184 293.64105891 546.03169179 308.65789616 C546.02294678 312.60783719 546.02598515 316.55777294 546.02749634 320.50772095 C546.0285383 327.3293027 546.02233442 334.1508458 546.01102066 340.97241783 C545.99467421 350.83491203 545.98954837 360.69738779 545.98704468 370.55989406 C545.98268182 386.56630712 545.96941122 402.57269964 545.95043945 418.57910156 C545.932044 434.11555886 545.9179055 449.65201055 545.90942383 465.18847656 C545.90863566 466.6281883 545.90863566 466.6281883 545.90783156 468.09698512 C545.90522124 472.91269805 545.90269388 477.72841102 545.90020776 482.54412401 C545.8795192 522.41118493 545.84433237 562.27822294 545.79956055 602.14526367 C505.93453484 602.19114113 466.06951259 602.22633349 426.20446571 602.24739433 C421.48738465 602.24989545 416.77030364 602.25248412 412.05322266 602.25512695 C411.11422153 602.25565157 410.1752204 602.25617619 409.20776469 602.25671671 C394.04635698 602.26539572 378.88496458 602.28115176 363.72356593 602.29956926 C348.14171483 602.31833825 332.5598717 602.32939512 316.97800976 602.33344066 C307.37981427 602.33617127 297.78166211 602.34476405 288.18347997 602.36109661 C281.58246134 602.3717501 274.98146478 602.37484559 268.3804382 602.37226643 C264.58423473 602.370998 260.78810642 602.37280284 256.99191666 602.38367462 C236.24302121 602.44014937 215.5483662 602.01912901 195.04956055 598.45776367 C194.08115234 598.29187744 193.11274414 598.12599121 192.11499023 597.95507812 C142.57372 589.03401951 95.8646629 567.93403917 56.79956055 536.14526367 C56.03651611 535.52651367 56.03651611 535.52651367 55.25805664 534.89526367 C48.42521401 529.32540376 41.87812519 523.46151403 35.42456055 517.45776367 C34.77060303 516.85230713 34.11664551 516.24685059 33.44287109 515.62304688 C28.92048872 511.37139686 24.83023129 506.86092032 20.79956055 502.14526367 C19.85105207 501.07316742 18.90064584 500.00274598 17.94799805 498.93432617 C5.73810675 485.07903776 -4.80053997 470.02772026 -14.20043945 454.14526367 C-14.8046875 453.13423584 -14.8046875 453.13423584 -15.42114258 452.1027832 C-41.21297476 408.60205833 -55.44281199 357.16293676 -55.32069397 306.59173584 C-55.32154839 305.27882954 -55.32240282 303.96592324 -55.32328314 302.6132319 C-55.32550011 299.00323077 -55.32154553 295.39325978 -55.31650507 291.78326249 C-55.31216021 287.87750649 -55.31364985 283.971752 -55.31440735 280.06599426 C-55.31493004 273.31032666 -55.31180995 266.55466876 -55.30616951 259.7990036 C-55.29801987 250.03161536 -55.29543575 240.26423178 -55.29418152 230.49684051 C-55.29199643 214.64738646 -55.2853511 198.79793757 -55.27587891 182.94848633 C-55.26669072 167.55818711 -55.25961677 152.1678893 -55.25537109 136.77758789 C-55.25510837 135.82788898 -55.25484565 134.87819008 -55.25457496 133.89971241 C-55.25326986 129.13504131 -55.25200617 124.37037019 -55.25076306 119.60569906 C-55.24040737 80.11888365 -55.22280387 40.632074 -55.20043945 1.14526367 C-36.79250877 0.33415718 -18.424463 -0.00416384 0 0 Z " fill="#12955E" transform="translate(1842.200439453125,894.854736328125)"/>
<path d="M0 0 C39.89028175 -0.06887672 79.78055565 -0.12163515 119.67088513 -0.15319599 C124.3952549 -0.15694748 129.11962455 -0.16083051 133.84399414 -0.16479492 C135.25462096 -0.16597532 135.25462096 -0.16597532 136.69374529 -0.16717956 C151.86080962 -0.18018384 167.02783935 -0.2038098 182.19488325 -0.23145839 C197.79258229 -0.25965193 213.39026339 -0.27620551 228.98798686 -0.28226548 C238.58925965 -0.28635322 248.19043459 -0.29919664 257.79167721 -0.3237494 C264.40255663 -0.33977946 271.0133865 -0.34436199 277.62428387 -0.34050413 C281.42126793 -0.33860898 285.21808278 -0.3412182 289.01503563 -0.35761642 C364.69724765 -0.66757342 438.62865163 21.00324589 496 72 C497.04414062 72.8971875 497.04414062 72.8971875 498.109375 73.8125 C500.09461794 75.51882451 502.05086593 77.25250048 504 79 C504.47937012 79.42893555 504.95874023 79.85787109 505.45263672 80.29980469 C512.74589044 86.85020647 519.61139079 93.54662258 526 101 C526.83789062 101.95003906 527.67578125 102.90007812 528.5390625 103.87890625 C540.46233529 117.52102519 550.77952127 132.42070008 560 148 C560.60424805 149.01102783 560.60424805 149.01102783 561.22070312 150.04248047 C587.0125353 193.54320535 601.24237254 244.98232691 601.12025452 295.55352783 C601.12110894 296.86643413 601.12196337 298.17934043 601.12284368 299.53203177 C601.12506066 303.1420329 601.12110607 306.75200389 601.11606562 310.36200118 C601.11172076 314.26775718 601.11321039 318.17351167 601.1139679 322.07926941 C601.11449058 328.83493701 601.11137049 335.59059491 601.10573006 342.34626007 C601.09758041 352.11364831 601.09499629 361.88103189 601.09374207 371.64842317 C601.09155698 387.49787721 601.08491165 403.3473261 601.07543945 419.19677734 C601.06625126 434.58707656 601.05917732 449.97737437 601.05493164 465.36767578 C601.05466892 466.31737469 601.05440619 467.2670736 601.05413551 468.24555126 C601.05283041 473.01022237 601.05156672 477.77489348 601.05032361 482.53956461 C601.03996792 522.02638002 601.02236441 561.51318967 601 601 C559.87806214 601.06881887 518.75613184 601.12160607 477.63414779 601.15319599 C472.76814271 601.15694765 467.90213773 601.16083066 463.03613281 601.16479492 C462.06748785 601.16558185 461.09884288 601.16636878 460.10084504 601.16717956 C444.46158033 601.18019745 428.82234905 601.20383114 413.1831041 601.23145839 C397.10969391 601.25961365 381.0363011 601.27619754 364.96286726 601.28226548 C355.06216412 601.28636104 345.1615555 601.29924816 335.26088148 601.3237494 C328.4514711 601.33973187 321.64210885 601.3443724 314.83268112 601.34050413 C310.91682802 601.33860181 307.00113887 601.34130467 303.0853157 601.35761642 C281.44185948 601.44331528 260.21218967 600.4015316 239 595.75 C237.54146606 595.43639526 237.54146606 595.43639526 236.0534668 595.11645508 C192.48767808 585.44799005 150.97356595 566.88875693 116 539 C115.01 538.22140625 114.02 537.4428125 113 536.640625 C95.63943991 522.73244902 78.39524487 506.80190487 65 489 C64.06448755 487.7924374 63.12823315 486.58544939 62.19140625 485.37890625 C29.96768073 443.53321469 9.14994174 394.37593726 2 342 C1.83169741 340.80610751 1.66339481 339.61221502 1.48999214 338.38214397 C-0.431626 323.45830258 -0.2739413 308.50420476 -0.23213124 293.48736751 C-0.22338624 289.53742648 -0.2264246 285.58749073 -0.22793579 281.63754272 C-0.22897775 274.81596097 -0.22277387 267.99441787 -0.21146011 261.17284584 C-0.19511367 251.31035164 -0.18998782 241.44787588 -0.18748413 231.58536961 C-0.18312127 215.57895655 -0.16985067 199.57256403 -0.15087891 183.56616211 C-0.13248345 168.02970481 -0.11834495 152.49325312 -0.10986328 136.95678711 C-0.10933783 135.99697928 -0.10881239 135.03717146 -0.10827102 134.04827855 C-0.10566069 129.23256562 -0.10313334 124.41685266 -0.10064721 119.60113966 C-0.07995865 79.73407874 -0.04477182 39.86704073 0 0 Z " fill="#12955E" transform="translate(0,895)"/>
<path d="M0 0 C0 98.01 0 196.02 0 297 C-142.56 297.495 -142.56 297.495 -288 298 C-279.75 299.65 -271.5 301.3 -263 303 C-257.20577308 304.51788936 -251.47254588 306.06893932 -245.75 307.8125 C-244.67844162 308.1335672 -244.67844162 308.1335672 -243.5852356 308.46112061 C-231.50489433 312.08310067 -219.60821881 316.0450551 -208 321 C-207.28215332 321.30583008 -206.56430664 321.61166016 -205.82470703 321.92675781 C-176.92578378 334.4546957 -151.76999227 352.41296489 -129 374 C-127.86884766 375.06734375 -127.86884766 375.06734375 -126.71484375 376.15625 C-121.32676348 381.38365193 -116.65379994 387.1186535 -112 393 C-111.21753906 393.96550781 -110.43507813 394.93101562 -109.62890625 395.92578125 C-67.00921297 449.59249903 -38 531.78657939 -38 601 C-123.14 601 -208.28 601 -296 601 C-296.12099405 521.53379856 -296.12099405 521.53379856 -296.14648438 488.21289062 C-296.15235689 480.58764629 -296.15841803 472.96240214 -296.16479492 465.3371582 C-296.16558617 464.38162129 -296.16637741 463.42608438 -296.16719264 462.4415918 C-296.18019655 447.0689063 -296.2038234 431.69625489 -296.23145839 416.32358953 C-296.25963611 400.5157178 -296.27620222 384.70786377 -296.28226548 368.89996797 C-296.28635645 359.16663932 -296.29921796 349.43340703 -296.3237494 339.70010809 C-296.33975977 333.00140639 -296.34436629 326.3027536 -296.34050413 319.60403421 C-296.33860602 315.754642 -296.34125405 311.90541664 -296.35761642 308.05605507 C-296.45249169 284.5601429 -295.30113491 261.27115115 -290.25 238.25 C-289.99323486 237.0530249 -289.73646973 235.8560498 -289.47192383 234.62280273 C-277.93363281 182.40726441 -252.15958555 135.17812486 -216 96 C-215.09386355 94.99195253 -214.18898141 93.98277657 -213.28515625 92.97265625 C-208.74920254 87.92428896 -204.19698606 83.03849733 -198.98046875 78.67578125 C-197.61761832 77.52260011 -196.28794416 76.32942314 -194.98828125 75.10546875 C-180.88146642 61.83570751 -164.61869799 50.85507579 -148 41 C-147.22253418 40.5364209 -146.44506836 40.0728418 -145.64404297 39.59521484 C-102.10581596 13.91421814 -50.5312196 0 0 0 Z " fill="#F1A52E" transform="translate(1485,899)"/>
<path d="M0 0 C84.81 0 169.62 0 257 0 C257.12099405 80.55066661 257.12099405 80.55066661 257.14648438 114.30664062 C257.15235703 122.03165709 257.1584182 129.75667338 257.16479492 137.48168945 C257.16598179 138.93377968 257.16598179 138.93377968 257.16719264 140.41520506 C257.18020202 155.99613375 257.20383198 171.57702885 257.23145839 187.1579377 C257.25962071 203.1759821 257.27619902 219.19400906 257.28226548 235.2120772 C257.2863596 245.07746173 257.29923867 254.94275134 257.3237494 264.80810661 C257.33974064 271.5946306 257.34437048 278.3811063 257.34050413 285.16764771 C257.33860314 289.0694481 257.34128879 292.97108394 257.35761642 296.87285423 C257.44695693 319.33791747 256.32470568 341.48839141 251.5 363.5 C251.25427246 364.63034668 251.00854492 365.76069336 250.75537109 366.92529297 C245.88468032 388.1506746 238.73509677 409.50935458 229 429 C228.54431641 429.93150879 228.08863281 430.86301758 227.61914062 431.82275391 C207.03812032 473.69700964 176.70073625 512.16872413 139 540 C138.3601416 540.47501953 137.7202832 540.95003906 137.06103516 541.43945312 C121.66952442 552.78961746 105.39298844 562.87560021 88.07666016 571.02148438 C86.64812203 571.69460697 85.22350153 572.3760868 83.80224609 573.06445312 C56.75837237 586.13959821 27.98514865 594.03829612 -1.6875 598.3125 C-3.32211182 598.55190308 -3.32211182 598.55190308 -4.98974609 598.79614258 C-16.3769 600.30603683 -27.38571607 600.49503113 -39 601 C-39 502.99 -39 404.98 -39 304 C104.055 303.505 104.055 303.505 250 303 C240.43 301.02 230.86 299.04 221 297 C214.83864516 295.350465 208.75758252 293.67363933 202.6875 291.75 C201.93926971 291.51700195 201.19103943 291.28400391 200.4201355 291.04394531 C161.10258226 278.77412414 124.80077587 259.67109615 95 231 C94.37303223 230.40026367 93.74606445 229.80052734 93.10009766 229.18261719 C84.43487652 220.85075442 76.35990573 212.36631665 69.23388672 202.67382812 C68.04055897 201.05502024 66.81952747 199.4567481 65.59765625 197.859375 C29.32155126 149.70009967 12.15418554 89.17203532 3.125 30.375 C2.96940613 29.37078506 2.96940613 29.37078506 2.81066895 28.34628296 C1.35656787 18.84508776 0.64434041 9.66510613 0 0 Z " fill="#F1A52E" transform="translate(931,892)"/>
</svg>
